<svg width="253" height="88" viewBox="0 0 253 88" xmlns="http://www.w3.org/2000/svg">
    <g fill="none" fill-rule="evenodd">
        <path d="M24 0h205v88H24z"/>
        <path d="M37.767 46.427a6.931 6.931 0 0 0-.738-.665 7.747 7.747 0 0 0-.769-.529l-.066-.04-3.514-2.125-.733-.443c-1.44-.908-2.744-1.88-3.34-3.05a2.977 2.977 0 0 1-.342-1.37c0-1.002.561-1.851 1.506-2.407.752-.442 1.743-.699 2.891-.7h.006c.712.001 1.446.266 2.107.7 1.266.832 2.254 2.294 2.254 3.777h.738v-4.476h-.003a8.59 8.59 0 0 0-1.373-.7 10.01 10.01 0 0 0-3.725-.7c-1.37 0-2.658.253-3.78.7a8.436 8.436 0 0 0-1.379.7 7.204 7.204 0 0 0-.937.7c-1.144 1.014-1.833 2.325-1.833 3.776 0 1.918 1.423 3.344 3.35 4.623 1.015.673 2.168 1.305 3.33 1.946.401.223.803.445 1.202.671.968.593 1.726 1.212 2.248 1.856.557.69.848 1.408.848 2.159 0 1.287-.578 2.36-1.718 3.017-.768.444-1.788.7-3.068.7a5.823 5.823 0 0 1-2.82-.7c-2.308-1.252-3.372-3.869-3.372-5.176H24v4.553c.198.219.416.426.65.623l.087.075c.275.224.57.433.887.626.443.267.923.502 1.434.699 1.156.446 2.473.7 3.871.7 1.55 0 2.925-.254 4.09-.7.516-.197.99-.432 1.42-.7a7.167 7.167 0 0 0 .937-.7c.137-.121.268-.246.391-.377.953-1.008 1.475-2.255 1.475-3.604 0-.41-.056-.81-.162-1.195-.226-.823-.68-1.582-1.313-2.244M45.079 52.601c-.975 0-1.764.75-1.764 1.673 0 .924.79 1.672 1.764 1.672s1.764-.748 1.764-1.672c0-.924-.79-1.673-1.764-1.673M51.269 35.098c1.007 0 1.914.27 2.557.7.599.401.969.942.969 1.539v14.971c0 .597-.37 1.138-.97 1.54-.642.43-1.55.699-2.556.699v.7h10.58v-.7c-1.007 0-1.914-.27-2.557-.7-.6-.4-.97-.942-.97-1.539V37.337c0-.597.37-1.138.97-1.539.643-.43 1.55-.7 2.557-.7v-.7h-10.58v.7zM68.038 52.601c-.973 0-1.763.75-1.763 1.673 0 .924.79 1.672 1.763 1.672.974 0 1.764-.748 1.764-1.672 0-.924-.79-1.673-1.764-1.673" fill="#A0A0A0"/>
        <path d="M90.393 36.743c.156-.359.448-.682.84-.945.642-.43 1.548-.699 2.554-.7h.003V34.4h-8.234v.7h.004c.796 0 1.512.27 2.02.699.474.4.766.942.766 1.54 0 .215-.04.424-.112.622L82.542 50.7l-5.64-12.606-.099-.28a1.835 1.835 0 0 1-.065-.477c0-.597.293-1.138.768-1.54.507-.428 1.224-.698 2.018-.699h.004V34.4H69.064v.7h.004c1.006 0 1.912.27 2.553.699.394.263.685.586.841.945h.004l8.593 19.203h.739v-.002l8.591-19.201h.004zM104.765 35.798c.643-.43 1.55-.7 2.557-.7v-.7h-10.58v.7c1.008 0 1.913.27 2.557.7.598.401.97.942.97 1.539v14.971c0 .598-.372 1.138-.97 1.54-.644.43-1.55.699-2.558.699v.7h10.581v-.7c-1.007 0-1.914-.269-2.557-.7-.6-.4-.97-.941-.97-1.539V37.337c0-.597.37-1.138.97-1.539M153.816 51.07s-.68 1.008-2.051 1.715c-.92.474-1.757.773-3.245.979-.543.074-1.41.083-2.047.083h-4.407V36.29c0-.647.612-1.19.934-1.19v-.7h-7.988v.7c1.008 0 1.914.269 2.557.7.6.4.969.941.969 1.538V52.31c0 .597-.369 1.137-.969 1.538-.643.43-1.549.7-2.557.7v.7h18.024l1.566-4.176h-.786zM131.307 51.07s-.68 1.008-2.052 1.715c-.92.474-1.757.773-3.245.979-.542.074-1.41.083-2.046.083h-4.408V36.29c0-.647.612-1.19.934-1.19v-.7h-7.987v.7c1.007 0 1.913.269 2.557.7.6.4.969.941.969 1.538V52.31c0 .597-.37 1.137-.97 1.538-.643.43-1.549.7-2.556.7v.7h18.024l1.565-4.176h-.785zM182.619 54.547c-1.007 0-1.912-.27-2.554-.7-.362-.242-.64-.533-.804-.86L170.317 33h-.467c-.87 1.095-2.404 1.353-2.69 1.393l-.052.003.002.003.853 1.907-7.441 16.63h-.002c-.16.346-.447.656-.828.911-.642.43-1.547.7-2.554.7h-.002v.7h8.234v-.7h-.003c-.796 0-1.513-.27-2.02-.7-.475-.4-.767-.942-.767-1.539 0-.224.042-.442.12-.647h-.006l1.963-4.385h8.215l1.962 4.385h-.005c.077.205.12.423.12.647 0 .597-.294 1.138-.768 1.54-.507.43-1.224.698-2.02.699h-.002v.7h10.463v-.7h-.003zm-17.336-8.67 3.481-7.78 3.482 7.78h-6.963zM196.984 45.08v.7c1.007 0 1.914.27 2.557.7.6.4.968.942.968 1.538v5.195a6.826 6.826 0 0 1-1.105.648 7.422 7.422 0 0 1-2.42.656 8.82 8.82 0 0 1-.867.044h-.01a9.02 9.02 0 0 1-3.48-.7 9.127 9.127 0 0 1-1.354-.7 9.459 9.459 0 0 1-1.728-1.398 9.822 9.822 0 0 1-2.655-5.284c-.038-.23-.07-.464-.092-.699a10.46 10.46 0 0 1-.038-.7c-.003-.08-.006-.162-.006-.243 0-1.7.42-3.297 1.158-4.688 1.037-1.955 2.703-3.498 4.715-4.337a9.026 9.026 0 0 1 4.357-.656c.883.09 1.691.315 2.42.656.392.183.76.4 1.105.647 1.236.886 2.17 2.162 2.778 3.69h.75v-4.645a18.636 18.636 0 0 0-.738-.336l-.13-.056a17.874 17.874 0 0 0-2.66-.88 18.362 18.362 0 0 0-3.474-.519l-.051-.003a17.066 17.066 0 0 0-.882-.024c-.312 0-.618.011-.922.027a15.324 15.324 0 0 0-3.888.7 13.23 13.23 0 0 0-1.748.7c-.436.212-.856.445-1.254.699a11.62 11.62 0 0 0-1.536 1.162 10.691 10.691 0 0 0-2.43 3.175 10.405 10.405 0 0 0-1.097 4.674v.257h.007a10.88 10.88 0 0 0 .122 1.4c.31 1.98 1.18 3.788 2.5 5.283a10.902 10.902 0 0 0 1.484 1.399 12.449 12.449 0 0 0 2.259 1.4c.562.268 1.154.503 1.775.698 1.432.452 3.018.7 4.728.7a18.424 18.424 0 0 0 7.004-1.399l.193-.083a16.627 16.627 0 0 0 1.84-.923v-.393h-1.102v-4.586c0-.836.291-1.584.75-2.097.108-.121.226-.229.351-.322.326-.238.7-.377 1.102-.377h.001v-.7h-9.257zM228.142 51.07s-.68 1.008-2.052 1.715c-.92.474-1.757.773-3.244.979-.543.075-1.41.083-2.046.083h-4.409V45.03h3.364c1.825 0 3.325 1.01 3.508 2.138v-.017H224v-5.638h-.737v-.02c-.183 1.127-1.683 2.138-3.508 2.138h-3.364v-7.832H222.563c.253 0 .5.018.737.05 1.594.215 2.79 1.244 2.79 2.319v.147h.738v-3.915h-17.49v.699c.756 0 1.454.153 2.028.41.19.085.368.183.529.29.3.2.542.436.71.696.167.26.26.544.26.843v14.972c0 .596-.37 1.137-.97 1.538a4.085 4.085 0 0 1-1.306.554 5.126 5.126 0 0 1-1.251.146v.7h18.024l1.565-4.177h-.785z" fill="#171717"/>
        <path d="M0 0h253v88H0z"/>
    </g>
</svg>
