<svg xmlns="http://www.w3.org/2000/svg" width="24" height="24" viewBox="0 0 24 24">
    <g fill="none" fill-rule="evenodd" opacity=".85">
        <g>
            <g>
                <g>
                    <g>
                        <g>
                            <path fill="#FFF" stroke="#131922" d="M17.084 5c.97 0 1.94.37 2.68 1.11.74.74 1.111 1.711 1.111 2.681s-.37 1.941-1.11 2.682h0l-2.05 2.048L12 19.237l-7.764-7.764c-.74-.74-1.111-1.711-1.111-2.682 0-.97.37-1.94 1.11-2.68C4.977 5.37 5.948 5 6.918 5s1.94.37 2.68 1.11h0L12 8.513l2.402-2.402C15.142 5.37 16.113 5 17.084 5z" transform="translate(-151.000000, -1508.000000) translate(0.000000, 1428.000000) translate(0.000000, 72.000000) translate(24.000000, 0.000000) translate(127.000000, 8.000000)"/>
                        </g>
                    </g>
                </g>
            </g>
        </g>
    </g>
</svg>
